<?xml version="1.0" standalone="no"?><!DOCTYPE svg PUBLIC "-//W3C//DTD SVG 1.1//EN" "http://www.w3.org/Graphics/SVG/1.1/DTD/svg11.dtd"><svg t="1562240809504" class="icon" viewBox="0 0 1024 1024" version="1.1" xmlns="http://www.w3.org/2000/svg" p-id="5079" xmlns:xlink="http://www.w3.org/1999/xlink" width="32" height="32"><defs><style type="text/css"></style></defs><path d="M341.582341 296.82355c14.329413 12.282354 35.311767 20.982354 54.247063 18.935296 20.982354 0 37.358826-10.235295 54.247062-23.029414 18.935295-14.329413 31.217649-35.311767 41.452944-58.34118 18.935295-43.500003 18.935295-97.747066 2.047059-143.294128-10.235295-31.217649-29.17059-58.341181-54.247062-76.764711C424.999994 4.094118 401.970581 0 380.988226 2.047059 368.705872 4.094118 355.911754 10.235295 343.6294 16.376472c-23.029413 14.329413-37.358826 41.452944-47.594121 66.529416-12.282354 45.547062-14.329413 91.094124-2.047059 139.20001 6.141177 26.611767 20.982354 53.735298 47.594121 74.717652z m255.882371 2.047059c18.935295 14.329413 41.452944 25.076472 64.482357 25.076473 20.982354 2.047059 37.358826-2.047059 56.294122-12.282354s33.264708-25.076472 43.500003-43.500003c12.282354-20.982354 23.029413-41.452944 31.217649-64.482358 4.094118-18.935295 8.188236-37.358826 4.094118-58.34118-2.047059-29.17059-14.329413-54.247063-33.264708-76.764712-12.282354-14.329413-29.17059-31.217649-45.547062-37.358826-12.282354-4.094118-29.17059-10.235295-41.452944-8.188236-18.935295 4.094118-33.264708 12.282354-45.547062 23.029414-18.935295 14.329413-33.264708 33.264708-43.500003 54.247062-10.235295 18.935295-20.982354 37.358826-23.029414 62.435299-2.047059 25.076472-2.047059 52.200004 2.047059 74.717652s11.770589 44.523533 30.705885 61.411769z m-355.676496 209.823544c18.935295-14.329413 29.17059-35.311767 35.311768-56.294121 10.235295-33.264708 10.235295-66.529416 8.188235-99.794125 0-12.282354-4.094118-25.076472-10.235294-37.358826-12.282354-29.17059-35.311767-54.247063-64.482358-68.576475-23.029413-10.235295-45.547062-14.329413-66.529416-10.235295-25.076472 2.047059-45.547062 20.982354-62.435299 41.452944-20.47059 29.17059-30.705885 64.482357-34.800002 97.747065-2.047059 20.982354 0 41.452944 4.094118 62.435299 8.188236 31.217649 23.029413 58.341181 45.547062 78.81177 18.935295 14.329413 41.452944 23.029413 64.482357 23.029414 29.17059-2.047059 56.294122-10.235295 80.858829-31.21765z m735.917699-76.764711c-2.047059-20.982354-8.188236-37.358826-18.935295-56.294122-10.235295-20.982354-29.17059-41.452944-47.594121-52.200003-23.029413-12.282354-52.200004-14.329413-76.764712-12.282354-12.282354 2.047059-29.17059 4.094118-41.452944 12.282354-18.935295 10.235295-31.217649 29.17059-41.452944 47.594121-10.235295 25.076472-14.329413 54.247063-14.329413 80.858829 0 25.076472 0 54.247063 8.188236 78.81177 4.094118 18.935295 14.329413 37.358826 33.264708 47.594121 18.935295 14.329413 41.452944 20.982354 64.482358 23.029414 18.935295 2.047059 37.358826 2.047059 56.294122-2.047059s35.311767-14.329413 45.547062-31.21765c12.282354-14.329413 20.982354-35.311767 23.029413-54.247062 13.817648-24.052943 9.72353-52.711768 9.72353-81.882359z m-70.623534 388.429439c-2.047059-35.311767-20.982354-72.670593-45.547062-99.794125-4.094118-4.094118-10.235295-10.235295-18.935296-14.329412-33.264708-29.17059-66.529416-58.341181-99.794124-89.55883-33.264708-33.264708-64.482357-68.576475-91.605889-107.982361-20.982354-33.264708-47.594121-64.482357-87.511771-80.858829-23.029413-10.235295-52.200004-14.329413-76.764711-12.282354-45.547062 4.094118-87.511771 31.217649-114.123538 66.529417-8.188236 8.188236-12.282354 18.935295-18.935295 29.17059-20.982354 31.217649-45.547062 62.435298-74.717652 87.511771-14.329413 14.329413-31.217649 29.17059-45.547063 41.452944-8.188236 8.188236-18.935295 14.329413-25.076472 23.029413-31.217649 23.029413-62.435298 54.247063-78.81177 87.511771-12.282354 23.029413-20.982354 47.594121-23.029413 76.764711 0 23.029413 2.047059 45.547062 10.235294 66.529417 8.188236 23.029413 18.935295 45.547062 33.264709 64.482357 25.076472 31.217649 64.482357 52.200004 101.841183 54.247063 47.594121 2.047059 97.747066 0 143.294128-8.188236 20.982354-2.047059 41.452944-10.235295 64.482357-12.282354 45.547062-4.094118 91.605889-2.047059 135.105892 10.235295 35.311767 12.282354 74.717652 18.935295 112.076479 20.982354 37.358826 2.047059 78.81177-2.047059 114.123537-23.029413 25.076472-12.282354 45.547062-35.311767 58.341181-62.435298 21.494119-38.89412 31.729414-78.300005 27.635296-117.705891z m-430.394148 103.888243H358.470577c-12.282354 0-25.076472 0-37.358826-2.047059-25.076472-4.094118-47.594121-20.982354-64.482357-43.500003-12.282354-14.329413-20.982354-33.264708-23.029414-54.247063-2.047059-20.982354-2.047059-41.452944 0-62.435299 4.094118-23.029413 18.935295-43.500003 33.264709-58.34118 12.282354-12.282354 31.217649-23.029413 47.594121-31.217649 8.188236-2.047059 14.329413-4.094118 23.029413-4.094118h68.576475v-97.747066h66.529417c4.094118 120.776479 4.094118 239.505899 4.094118 353.629437z m264.070607 0H578.529416c-18.935295-2.047059-33.264708-8.188236-45.547062-18.935296-14.329413-12.282354-23.029413-33.264708-23.029413-52.200004v-174.511776h66.529416v162.229423c0 8.188236 2.047059 12.282354 8.188236 18.935295 4.094118 4.094118 12.282354 8.188236 20.982355 8.188236h68.576475v-188.84119h66.529417v245.135312z" fill="#306CFF" p-id="5080"></path><path d="M335.441164 735.405934c-12.282354 4.094118-25.076472 14.329413-33.264708 31.217649-4.094118 12.282354-8.188236 25.076472-8.188236 37.358826 0 14.329413 4.094118 31.217649 12.282354 43.500003 10.235295 14.329413 29.17059 25.076472 45.547062 23.029414h54.247062v-139.20001H348.235283c-2.558824-2.558824-6.652942 1.535294-12.794119 4.094118z" fill="#306CFF" p-id="5081"></path></svg>