<?xml version="1.0" standalone="no"?><!DOCTYPE svg PUBLIC "-//W3C//DTD SVG 1.1//EN" "http://www.w3.org/Graphics/SVG/1.1/DTD/svg11.dtd"><svg t="1562240835990" class="icon" viewBox="0 0 1049 1024" version="1.1" xmlns="http://www.w3.org/2000/svg" p-id="5889" xmlns:xlink="http://www.w3.org/1999/xlink" width="32.78125" height="32"><defs><style type="text/css"></style></defs><path d="M 524.979 0 C 234.676 0 0 234.676 0 524.979 c 0 232.069 150.367 428.501 358.968 498.035 c 26.0751 5.21503 35.636 -11.2992 35.636 -25.206 c 0 -12.1684 -0.869171 -53.8886 -0.869171 -97.3472 c -146.021 31.2902 -176.442 -62.5803 -176.442 -62.5803 c -23.4676 -60.842 -58.2345 -76.4871 -58.2345 -76.4871 c -47.8044 -32.1593 3.47668 -32.1593 3.47669 -32.1593 c 53.0194 3.47668 80.8329 53.8886 80.8329 53.8886 c 46.9352 79.9637 122.553 57.3653 152.974 43.4586 c 4.34586 -33.8977 18.2526 -57.3653 33.0285 -70.4029 c -116.469 -12.1684 -239.022 -57.3653 -239.022 -259.013 c 0 -57.3653 20.8601 -104.301 53.8886 -140.806 c -5.21503 -13.0376 -23.4676 -66.9262 5.21503 -139.067 c 0 0 44.3277 -13.9067 144.282 53.8886 c 41.7202 -11.2992 86.9171 -17.3834 131.245 -17.3834 s 89.5246 6.0842 131.245 17.3834 C 756.179 203.386 800.507 217.293 800.507 217.293 c 28.6826 72.1412 10.4301 126.03 5.21503 139.067 c 33.8977 36.5052 53.8886 83.4404 53.8886 140.806 c 0 201.648 -122.553 245.975 -239.891 259.013 c 19.1218 16.5143 35.636 47.8044 35.636 97.3472 c 0 70.4029 -0.869171 126.899 -0.869172 144.282 c 0 13.9067 9.56088 30.421 35.636 25.206 c 208.601 -69.5337 358.968 -265.966 358.968 -498.035 C 1049.96 234.676 814.413 0 524.979 0 Z" fill="#f4ea2a" p-id="5890"></path><path d="M 199.04 753.571 c -0.869171 2.60751 -5.21503 3.47668 -8.69171 1.73834 s -6.0842 -5.21503 -4.34586 -7.82254 c 0.869171 -2.60751 5.21503 -3.47668 8.69171 -1.73834 s 5.21503 5.21503 4.34586 7.82254 Z m -6.95337 -4.34586 M 219.9 777.039 c -2.60751 2.60751 -7.82254 0.869171 -10.4301 -2.60751 c -3.47668 -3.47668 -4.34586 -8.69171 -1.73834 -11.2992 c 2.60751 -2.60751 6.95337 -0.869171 10.4301 2.60751 c 3.47668 4.34586 4.34586 9.56088 1.73834 11.2992 Z m -5.21503 -5.21503 M 240.76 807.46 c -3.47668 2.60751 -8.69171 0 -11.2992 -4.34586 c -3.47668 -4.34586 -3.47668 -10.4301 0 -12.1684 c 3.47668 -2.60751 8.69171 0 11.2992 4.34586 c 3.47668 4.34586 3.47668 9.56088 0 12.1684 Z m 0 0 M 269.443 837.012 c -2.60751 3.47668 -8.69171 2.60751 -13.9067 -1.73834 c -4.34586 -4.34586 -6.0842 -10.4301 -2.60751 -13.0376 c 2.60751 -3.47668 8.69171 -2.60751 13.9067 1.73834 c 4.34586 3.47668 5.21503 9.56088 2.60751 13.0376 Z m 0 0 M 308.556 853.526 c -0.869171 4.34586 -6.95337 6.0842 -13.0376 4.34586 c -6.0842 -1.73834 -9.56088 -6.95337 -8.69171 -10.4301 c 0.869171 -4.34586 6.95337 -6.0842 13.0376 -4.34586 c 6.0842 1.73834 9.56088 6.0842 8.69171 10.4301 Z m 0 0 M 351.145 857.003 c 0 4.34586 -5.21503 7.82254 -11.2992 7.82254 c -6.0842 0 -11.2992 -3.47668 -11.2992 -7.82254 s 5.21503 -7.82254 11.2992 -7.82254 c 6.0842 0 11.2992 3.47668 11.2992 7.82254 Z m 0 0 M 391.127 850.049 c 0.869171 4.34586 -3.47668 8.69171 -9.56088 9.56088 c -6.0842 0.869171 -11.2992 -1.73834 -12.1684 -6.0842 c -0.869171 -4.34586 3.47668 -8.69171 9.56088 -9.56088 c 6.0842 -0.869171 11.2992 1.73834 12.1684 6.0842 Z m 0 0" fill="#f4ea2a" p-id="5891"></path></svg>