<svg t="1573630724059" class="icon" viewBox="0 0 1137 1024" version="1.1" xmlns="http://www.w3.org/2000/svg" p-id="4503" width="32" height="32"><path d="M739.554816 1024H284.44416a284.44416 284.44416 0 0 1 0-568.88832 281.03083 281.03083 0 0 1 88.883111 14.449763A395.946271 395.946271 0 0 1 739.554816 227.556352c219.54538 0 398.221824 178.630932 398.221824 398.221824s-178.676444 398.221824-398.221824 398.221824zM284.44416 568.889344a170.666496 170.666496 0 0 0 0 341.332992h455.110656a284.44416 284.44416 0 1 0-276.775545-348.887829 56.888832 56.888832 0 0 1-86.220714 34.99801A170.074852 170.074852 0 0 0 284.44416 568.889344zM113.777664 398.222848a56.888832 56.888832 0 0 1-56.888832-56.888832C56.888832 153.123004 209.988057 0.001024 398.221824 0.001024a338.443039 338.443039 0 0 1 204.663262 68.266598 56.888832 56.888832 0 1 1-68.266598 91.022132A227.555328 227.555328 0 0 0 170.666496 341.334016a56.888832 56.888832 0 0 1-56.888832 56.888832z" p-id="4504" fill="#ffffff"></path></svg>