<svg t="1573630472105" class="icon" viewBox="0 0 1024 1024" version="1.1" xmlns="http://www.w3.org/2000/svg" p-id="2102" width="32" height="32"><path d="M143.283 443.773h380.216c37.971 0 73.8-14.918 100.889-42.007s42.008-62.918 42.008-100.889-14.919-73.8-42.008-100.889c-27.088-27.089-62.918-42.007-100.889-42.007-37.97 0-73.8 14.918-100.889 42.007s-42.007 62.919-42.007 100.889c0 17.673 14.327 32 32 32 17.673 0 32-14.327 32-32 0-43.504 35.393-78.896 78.896-78.896s78.896 35.393 78.896 78.896-35.393 78.896-78.896 78.896H143.283c-17.673 0-32 14.327-32 32s14.328 32 32 32z" p-id="2103" fill="#ffffff"></path><path d="M913.893 315.588c-27.088-27.089-62.918-42.007-100.889-42.007s-73.801 14.918-100.889 42.007c-27.089 27.089-42.008 62.918-42.008 100.889 0 17.673 14.327 32 32 32s32-14.327 32-32c0-43.504 35.393-78.896 78.896-78.896s78.896 35.393 78.896 78.896-35.393 78.896-78.896 78.896H100.099c-17.673 0-32 14.327-32 32s14.327 32 32 32h712.905c37.971 0 73.8-14.919 100.889-42.007 27.089-27.089 42.008-62.919 42.008-100.889s-14.919-73.8-42.008-100.889zM618.034 619.645a31.885 31.885 0 0 0-12.3-2.453H288.887c-17.673 0-32 14.327-32 32s14.327 32 32 32h304.524c32.748 0 60.414 27.666 60.414 60.414 0 32.747-27.666 60.413-60.414 60.413-32.747 0-60.413-27.666-60.413-60.413 0-17.673-14.327-32-32-32-17.673 0-32 14.327-32 32 0 33.066 12.987 64.264 36.568 87.845 23.582 23.582 54.779 36.568 87.845 36.568 33.067 0 64.265-12.986 87.846-36.568 23.581-23.581 36.568-54.778 36.568-87.845s-12.986-64.264-36.568-87.846c-17.621-17.62-39.495-29.323-63.223-34.115z" p-id="2104" fill="#ffffff"></path></svg>